<?xml version="1.0" encoding="utf-8"?>
<!-- Generator: Adobe Illustrator 23.0.3, SVG Export Plug-In . SVG Version: 6.00 Build 0)  -->
<svg version="1.1" id="Capa_1" xmlns="http://www.w3.org/2000/svg" xmlns:xlink="http://www.w3.org/1999/xlink" x="0px" y="0px"
	 viewBox="0 0 2443 2500" style="enable-background:new 0 0 2443 2500;" xml:space="preserve">
<path d="M2441.7,1273.4c0-102.4-8.3-177.2-26.3-254.7H1245.8V1481h686.5c-13.8,114.9-88.6,287.9-254.7,404.2l-2.3,15.5l369.8,286.5
	l25.6,2.6C2306.1,1972.4,2441.7,1652.6,2441.7,1273.4"/>
<path d="M1245.8,2491.4c336.3,0,618.7-110.7,824.9-301.7l-393.1-304.5c-105.2,73.4-246.4,124.6-431.8,124.6
	c-329.4,0-609-217.3-708.7-517.7l-14.6,1.2L138,1790.9l-5,14C337.8,2211.8,758.6,2491.4,1245.8,2491.4"/>
<path d="M537.2,1492.1c-26.3-77.5-41.5-160.6-41.5-246.4c0-85.8,15.2-168.9,40.1-246.4l-0.7-16.5L145.7,680.5l-12.7,6.1
	C48.6,855.4,0.1,1045,0.1,1245.7S48.6,1636,133,1804.9L537.2,1492.1"/>
<path d="M1245.8,481.7c233.9,0,391.7,101,481.7,185.5l351.6-343.3C1863.2,123.2,1582.2,0,1245.8,0C758.6,0,337.8,279.6,133,686.5
	l402.8,312.8C636.8,699,916.4,481.7,1245.8,481.7"/>
</svg>
